<svg xmlns="http://www.w3.org/2000/svg" aria-hidden="true" style="position:absolute;width:0;height:0;overflow:hidden">
  <defs>
    <symbol id="icon-book" viewBox="0 0 28 32">
      <path stroke-linecap="round" stroke-linejoin="round" stroke-width="1.362" d="M2.326 4.48h6.979c1.234 0 2.417.539 3.29 1.5s1.363 2.262 1.363 3.62v17.92c0-1.018-.368-1.995-1.022-2.715s-1.542-1.125-2.467-1.125H2.327V4.48z"/>
      <path stroke-linecap="round" stroke-linejoin="round" stroke-width="1.362" d="M25.589 4.48H18.61c-1.234 0-2.417.539-3.29 1.5s-1.363 2.262-1.363 3.62v17.92c0-1.018.368-1.995 1.022-2.715s1.542-1.125 2.467-1.125h8.142V4.48z"/>
    </symbol>
    <symbol id="icon-brackets" viewBox="0 0 41 32">
      <path d="M40.211 16.208 24.419 32V.416h15.792v15.792zM15.996 16.208.204 32V.416h15.792v15.792z"/>
    </symbol>
    <symbol id="icon-calendar" width="18" height="18" fill="none">
    <path stroke="#fff" stroke-linecap="round" stroke-linejoin="round" stroke-width="2" d="M14.25 3H3.75a1.5 1.5 0 0 0-1.5 1.5V15a1.5 1.5 0 0 0 1.5 1.5h10.5a1.5 1.5 0 0 0 1.5-1.5V4.5a1.5 1.5 0 0 0-1.5-1.5ZM12 1.5v3M6 1.5v3M2.25 7.5h13.5"/>
    </symbol>
    <symbol id="icon-dots" viewBox="0 0 160 32">
      <path d="M144 32c8.837 0 16-7.163 16-16s-7.163-16-16-16-16 7.163-16 16 7.163 16 16 16zM80 32c8.837 0 16-7.163 16-16S88.837 0 80 0 64 7.163 64 16s7.163 16 16 16zM16 32c8.837 0 16-7.163 16-16S24.837 0 16 0 0 7.163 0 16s7.163 16 16 16z"/>
    </symbol>
    <symbol id="icon-envelope" viewBox="0 0 28 32">
      <path stroke-linecap="round" stroke-linejoin="round" stroke-width="1.362" d="M4.652 5.76h18.61c1.279 0 2.326 1.152 2.326 2.56v15.36c0 1.408-1.047 2.56-2.326 2.56H4.652c-1.279 0-2.326-1.152-2.326-2.56V8.32c0-1.408 1.047-2.56 2.326-2.56z"/>
      <path stroke-linecap="round" stroke-linejoin="round" stroke-width="1.362" d="m25.589 8.32-11.631 8.96L2.327 8.32"/>
    </symbol>
    <symbol id="icon-exclamation" viewBox="0 0 32 32">
      <path fill="#5C8692" d="m30.667 16-3.253-3.707.453-4.907-4.813-1.093-2.52-4.24L16.001 4l-4.533-1.947-2.52 4.24-4.813 1.08.453 4.907L1.335 16l3.253 3.707-.453 4.92 4.813 1.093 2.52 4.24L16.001 28l4.533 1.947 2.52-4.24 4.813-1.093-.453-4.907L30.667 16zm-13.334 6.667h-2.667V20h2.667v2.667zm0-5.334h-2.667v-8h2.667v8z"/>
    </symbol>
    <symbol id="icon-facebook" viewBox="0 0 17 32">
      <path d="m15.467 17.474.829-5.447h-5.27V8.474c0-1.539.711-2.961 3.079-2.961h2.428V.835S14.342.421 12.27.421c-4.322 0-7.164 2.664-7.164 7.401v4.204H.251v5.447h4.855v13.263h5.921V17.473h4.441z"/>
    </symbol>
    <symbol id="icon-tel" viewBox="0 0 31 32">
      <path fill="#fff" stroke="#5C8692" stroke-linecap="round" stroke-linejoin="round" stroke-width="2.56" d="M19.264 7.04a6.4 6.4 0 0 1 5.056 5.056L19.264 7.04zm0-5.12A11.52 11.52 0 0 1 29.44 12.084L19.264 1.921zm8.896 20.378v3.84c.001.356-.072.709-.214 1.036s-.352.62-.615.861a2.575 2.575 0 0 1-1.961.664 25.325 25.325 0 0 1-11.046-3.93 24.949 24.949 0 0 1-7.68-7.68 25.343 25.343 0 0 1-3.93-11.098 2.553 2.553 0 0 1 .659-1.957A2.563 2.563 0 0 1 5.261 3.2h3.84a2.56 2.56 0 0 1 2.56 2.202c.162 1.229.463 2.436.896 3.597a2.554 2.554 0 0 1-.576 2.701l-1.626 1.626a20.478 20.478 0 0 0 7.68 7.68l1.626-1.626a2.558 2.558 0 0 1 2.701-.576c1.161.433 2.368.734 3.597.896a2.562 2.562 0 0 1 2.202 2.598z"/>
    </symbol>
    <symbol id="icon-instagram" viewBox="0 0 30 32">
      <path d="M15.111 8.191c-4.222 0-7.587 3.431-7.587 7.587a7.547 7.547 0 0 0 7.587 7.587c4.156 0 7.587-3.365 7.587-7.587 0-4.156-3.431-7.587-7.587-7.587zm0 12.535a4.941 4.941 0 0 1-4.948-4.948c0-2.705 2.177-4.882 4.948-4.882a4.87 4.87 0 0 1 4.882 4.882c0 2.771-2.177 4.948-4.882 4.948zm9.632-12.799c0-.99-.792-1.781-1.781-1.781s-1.781.792-1.781 1.781.792 1.781 1.781 1.781c.99 0 1.781-.792 1.781-1.781zm5.014 1.781c-.132-2.375-.66-4.486-2.375-6.201s-3.826-2.243-6.201-2.375C18.74 1 11.417 1 8.976 1.132c-2.375.132-4.42.66-6.201 2.375C1.06 5.222.532 7.333.4 9.708c-.132 2.441-.132 9.764 0 12.205.132 2.375.66 4.42 2.375 6.201 1.781 1.715 3.826 2.243 6.201 2.375 2.441.132 9.764.132 12.205 0 2.375-.132 4.486-.66 6.201-2.375 1.715-1.781 2.243-3.826 2.375-6.201.132-2.441.132-9.764 0-12.205zM26.59 24.486c-.462 1.319-1.517 2.309-2.771 2.837-1.979.792-6.597.594-8.708.594-2.177 0-6.795.198-8.708-.594a5.003 5.003 0 0 1-2.837-2.837c-.792-1.913-.594-6.531-.594-8.708 0-2.111-.198-6.729.594-8.708a5.09 5.09 0 0 1 2.837-2.771c1.913-.792 6.531-.594 8.708-.594 2.111 0 6.729-.198 8.708.594 1.253.462 2.243 1.517 2.771 2.771.792 1.979.594 6.597.594 8.708 0 2.177.198 6.795-.594 8.708z"/>
    </symbol>
    <symbol id="icon-linkedin" viewBox="0 0 32 32">
      <path d="M7.281 32V10.977H.742V32h6.539zM3.977 8.164c2.109 0 3.797-1.758 3.797-3.867C7.774 2.258 6.086.57 3.977.57 1.938.57.25 2.258.25 4.297c0 2.109 1.688 3.867 3.727 3.867zM31.68 32h.07V20.469c0-5.625-1.266-9.984-7.875-9.984-3.164 0-5.273 1.758-6.188 3.375h-.07v-2.883h-6.258V32h6.539V21.594c0-2.742.492-5.344 3.867-5.344s3.445 3.094 3.445 5.555V32h6.469z"/>
    </symbol>
    <symbol id="icon-lotus" viewBox="0 0 32 32">
      <path d="M4.938 25.241a.613.613 0 0 1-.797.344C1.793 24.653.368 23.454.02 22.12a.614.614 0 1 1 1.188-.31c.242.926 1.444 1.861 3.387 2.633a.616.616 0 0 1 .344.798zm2.086-6.438a.615.615 0 0 0 .864-.069.616.616 0 0 0-.069-.867c-.305-.26-.602-.535-.885-.819-2.697-2.703-4.109-6.138-3.681-8.876 1.151-.181 2.424-.035 3.714.397a.655.655 0 0 0 .176.061c1.718.609 3.457 1.718 4.967 3.231.38.38.742.785 1.075 1.2a.613.613 0 1 0 .956-.772c-.361-.45-.753-.886-1.164-1.298-1.551-1.554-3.34-2.719-5.139-3.406-.044-1.112.144-2.128.542-2.928 1.013.221 2.062.839 3.005 1.774a15.238 15.238 0 0 0-.312 1.624.613.613 0 1 0 1.216.167c.413-3.013 1.718-5.543 3.524-6.865 1.806 1.321 3.111 3.851 3.524 6.863a.613.613 0 1 0 1.216-.167 15.172 15.172 0 0 0-.312-1.623c.943-.936 1.992-1.554 3.005-1.774.397.8.586 1.816.542 2.928-1.799.688-3.588 1.853-5.139 3.406-.411.412-.802.849-1.164 1.298a.613.613 0 1 0 .956.772c.334-.415.696-.819 1.075-1.2 1.51-1.513 3.249-2.623 4.966-3.231a.618.618 0 0 0 .177-.061c1.29-.431 2.564-.578 3.714-.397.428 2.739-.984 6.174-3.681 8.876a15.21 15.21 0 0 1-.885.819c-.258.22-.289.608-.07.867s.607.29.865.07c.329-.281.651-.579.957-.886 3.118-3.123 4.662-7.209 3.936-10.408a.616.616 0 0 0-.463-.464c-1.24-.283-2.614-.222-4.014.141-.013-1.354-.335-2.587-.932-3.537a.614.614 0 0 0-.59-.283c-1.233.143-2.508.758-3.654 1.753-.792-2.219-2.091-4.01-3.705-5.027a.613.613 0 0 0-.654 0C13.869 1.11 12.57 2.9 11.778 5.119c-1.146-.995-2.419-1.61-3.654-1.753a.612.612 0 0 0-.589.283c-.596.949-.917 2.182-.931 3.537-1.399-.364-2.774-.424-4.014-.141a.616.616 0 0 0-.463.464c-.726 3.199.819 7.284 3.936 10.408.305.306.627.603.957.885zm-.291 4.809a.615.615 0 0 0-.377-.783c-1.852-.649-2.957-1.469-2.957-2.193 0-.468.482-.997 1.356-1.49.295-.166.4-.541.234-.837s-.54-.401-.835-.234c-1.316.741-1.982 1.603-1.982 2.562 0 1.328 1.307 2.488 3.78 3.355a.615.615 0 0 0 .782-.379zm18.418-.74a.616.616 0 0 0 .197 1.197.617.617 0 0 0 .197-.033c2.56-.871 3.914-2.047 3.914-3.401 0-.925-.621-1.76-1.846-2.484a.615.615 0 0 0-.623 1.06c.801.473 1.242.979 1.242 1.424-.001.733-1.181 1.59-3.081 2.237zm-3.25 4.494a1.13 1.13 0 0 1-1.128 1.13.614.614 0 0 0 0 1.23 2.36 2.36 0 0 0 2.355-2.36.614.614 0 1 0-1.228 0zm9.207-5.996a.614.614 0 0 0-.749.44c-.242.926-1.444 1.861-3.386 2.633a.616.616 0 0 0 .453 1.143c2.348-.933 3.773-2.132 4.122-3.465a.616.616 0 0 0-.44-.75zm-10.905.267a.607.607 0 0 1-.606.607.614.614 0 0 0 0 1.23 1.837 1.837 0 0 0 1.833-1.837.614.614 0 1 0-1.228 0zm-1.754-3.927h.16a.614.614 0 0 0 0-1.23h-.16a.614.614 0 0 0 0 1.23zm6.34 7.05a4.54 4.54 0 0 1 .86 2.665A4.575 4.575 0 0 1 21.084 32H10.548a4.575 4.575 0 0 1-4.565-4.574c0-1.674.925-3.205 2.361-4.003a3.702 3.702 0 0 1 2.155-4.975 2.852 2.852 0 0 1 2.342-4.468h5.951a2.851 2.851 0 0 1 0 5.702h-5.95c-.382 0-.746-.076-1.08-.213a2.464 2.464 0 1 0-.041 4.931h8.195a2.464 2.464 0 0 0 1.566-4.361.614.614 0 1 1 .785-.946 3.693 3.693 0 0 1-2.351 6.535h-8.195a3.676 3.676 0 0 1-2.695-1.176 3.363 3.363 0 0 0-1.813 2.973 3.345 3.345 0 0 0 3.338 3.345h10.536a3.346 3.346 0 0 0 3.338-3.344c0-.702-.217-1.375-.628-1.946-.198-.275-.136-.66.139-.859s.658-.137.857.138zm-13.567-7.929c0 .894.726 1.621 1.618 1.621h5.95a1.621 1.621 0 0 0 0-3.242h-5.95c-.892 0-1.618.727-1.618 1.621z"/>
    </symbol>
    <symbol id="icon-notebook" viewBox="0 0 28 32">
      <path stroke-linecap="round" stroke-linejoin="round" stroke-width="1.391" d="M12.754 5.778H4.638c-.615 0-1.205.269-1.64.748s-.679 1.129-.679 1.807v17.889c0 .678.244 1.328.679 1.807s1.025.749 1.64.749H20.87c.615 0 1.205-.269 1.64-.749s.679-1.129.679-1.807v-8.944"/>
      <path stroke-linecap="round" stroke-linejoin="round" stroke-width="1.391" d="M21.45 3.861c.461-.508 1.087-.794 1.739-.794s1.278.286 1.739.794c.461.508.72 1.198.72 1.917s-.259 1.408-.72 1.917L13.914 19.834l-4.638 1.278 1.159-5.111L21.449 3.862z"/>
    </symbol>
    <symbol id="icon-phone" viewBox="0 0 28 32">
      <path stroke-linecap="round" stroke-linejoin="round" stroke-width="1.362" d="M13.016 24.768c3.021 2.156 6.459 3.502 10.038 3.93.323.032.648-.01.955-.125s.589-.298.827-.539c.239-.241.429-.534.559-.861s.196-.679.195-1.036v-3.84c.014-.628-12.205 2.95-12.573 2.47zm0 0c-2.81-1.965-5.193-4.587-6.979-7.68C4.071 13.749 2.848 9.947 2.466 5.99c-.029-.354.009-.711.112-1.048s.269-.646.486-.909c.218-.263.483-.472.778-.616s.615-.218.938-.218h3.489c.564-.006 1.112.214 1.54.619s.708.968.787 1.583c.147 1.229.42 2.435.814 3.597.156.458.19.956.098 1.435s-.308.918-.621 1.266L9.41 13.325c1.656 3.205 4.067 5.858 6.979 7.68l1.477-1.626c.316-.344.716-.581 1.15-.683s.887-.065 1.304.107c1.055.433 2.152.734 3.268.896.565.088-10.942 4.59-10.573 5.069z"/>
    </symbol>
    <symbol id="icon-stars" viewBox="0 0 152 32">
      <path d="m149.901 12.493-9.238-.788-3.611-8.411-3.611 8.424-9.238.775 7.015 6.01-2.107 8.932 7.941-4.739 7.941 4.739-2.094-8.932 7.002-6.01zm-12.849 7.827V8.504l2.197 5.133 5.628.483-4.266 3.659 1.285 5.438-4.844-2.897zM15.418 22.696l7.94 4.739-2.107-8.932 7.016-6.01-9.238-.775-3.611-8.424-3.611 8.424-9.238.775 7.015 6.01-2.107 8.932 7.94-4.739zM46.255 22.696l7.941 4.739-2.107-8.932 7.015-6.01-9.238-.775-3.611-8.424-3.61 8.424-9.238.775 7.015 6.01-2.107 8.932 7.94-4.739zM77.092 22.696l7.94 4.739-2.107-8.932 7.015-6.01-9.238-.775-3.61-8.424-3.611 8.424-9.238.775 7.015 6.01-2.107 8.932 7.941-4.739zM106.216 22.696l7.94 4.739-2.107-8.932 7.015-6.01-9.238-.775-3.61-8.424-3.611 8.424-9.238.775 7.015 6.01-2.107 8.932 7.941-4.739z"/>
    </symbol>
    <symbol id="icon-tick" viewBox="0 0 43 32">
      <path stroke-linecap="round" stroke-linejoin="round" stroke-width="4" d="M40 2.833 14.333 28.166 2.666 16.651"/>
    </symbol>
    <symbol id="icon-tubes" viewBox="0 0 27 32">
      <path d="M5.171 12.764a.625.625 0 1 0 0-1.25.625.625 0 0 0 0 1.25z"/>
      <path d="M26.298 11.485a2.106 2.106 0 0 0-1.595-.71H19.65v-1.07a2.845 2.845 0 0 0-2.841-2.841h-.489v-.08c0-1.12-.888-2.035-1.996-2.081V3.638a4.158 4.158 0 0 0 1.206-.47c.63-.382.902-.844 1.02-1.163.263-.714-.014-1.533-.63-1.863a1.169 1.169 0 0 0-.553-.141c-.418 0-.81.232-1.047.612-.12.078-.578.315-1.745.315H9.667c-1.477 0-2.395 1.01-2.395 2.636 0 .797.574 1.446 1.28 1.446.629 0 1.154-.515 1.26-1.191h1.397v.885a2.085 2.085 0 0 0-1.996 2.081v.08h-.49a2.844 2.844 0 0 0-2.841 2.841v.042H4.051c-.812 0-1.473.661-1.473 1.473v2.784c-.444.38-.726.943-.726 1.571v.918a3.564 3.564 0 0 0-1.489 2.663c-.031.483-.054.996-.065 1.521a.48.48 0 1 0 .963.022c.011-.512.033-1.009.064-1.48a2.602 2.602 0 0 1 1.497-2.183l.017-.008a2.606 2.606 0 0 1 1.068-.233h2.526c.367 0 .734.081 1.068.233l.017.008a2.64 2.64 0 0 1 1.497 2.183c.049.731.073 1.483.073 2.233 0 .355-.01.709-.017 1.064l-.001.038c-.004.125-.353.471-.426.601a3.36 3.36 0 0 0-.288.67c-.163.53-.197 1.088-.207 1.639-.014.825.068 1.653.25 2.458l.002.011a2.1 2.1 0 0 1-1.984 1.391H3.923a2.127 2.127 0 0 1-2.068-1.682c-.328-1.546-.524-3.242-.584-5.04a.481.481 0 0 0-.962.032c.062 1.855.265 3.607.604 5.208a3.096 3.096 0 0 0 3.01 2.446h2.495c.938 0 1.79-.415 2.36-1.1.304.81.714 1.562 1.221 2.226a.483.483 0 0 0 .383.189h9.091c.15 0 .292-.07.383-.189.147-.192.285-.392.415-.597h4.142a.482.482 0 0 0 .482-.482v-3.977l1.144-8.262a.482.482 0 0 0-.954-.132l-.915 6.609h-2.518a3.547 3.547 0 0 0-2.14-2.94l-.017-.127-1.2-8.668a.972.972 0 0 1-.008-.093v-.005c-.009-.312.159-.593.402-.777.196-.148.452-.223.696-.223h5.319c.341 0 .658.138.868.38a.895.895 0 0 1 .222.718l-.443 3.198a.482.482 0 0 0 .954.132l.443-3.198a1.846 1.846 0 0 0-.451-1.483zM9.667 2.853c-.222 0-.498.025-.658.201-.125.138-.14.331-.14.508 0 .284-.167.482-.317.482s-.317-.198-.317-.482c0-1.455.897-1.672 1.431-1.672h2.908c.449 0 .916-.028 1.362-.125.385-.083.815-.207 1.097-.496.103-.106.153-.306.333-.306.032 0 .064.009.096.026.17.091.284.402.181.681-.083.225-.441.86-1.87 1.094l-.011.001a7.392 7.392 0 0 1-1.189.087l-2.908-.001zm3.692.932v.914h-1.186v-.883c.001.021 1.186-.022 1.186-.031zm-2.062 1.878h2.939c.617 0 1.12.502 1.12 1.12v.08h-5.178v-.08c0-.617.502-1.12 1.12-1.12zm-7.754 5.559v-.002a.51.51 0 0 1 .509-.509h2.239l.032.002.006.001c.565.041.471.699.471 1.094v1.737a2.074 2.074 0 0 0-.377-.035H3.92c-.117 0-.253.034-.376.03-.036-.767-.001-1.547-.001-2.316zm3.983 4.782c0-.14-.957-.172-1.093-.172H3.909c-.37 0-.741.059-1.092.172v-.43c0-.596.507-1.104 1.104-1.104h2.503c.362 0 .712.188.915.488.211.313.188.686.188 1.046zm13.488 13.392a.993.993 0 0 1 .017-.054c.167-.473.317-.954.426-1.444.173-.774.257-1.571.248-2.364h2.226v4.317h-3.134c.083.001.174-.314.217-.454zm-.517-5.504h-2.275a.482.482 0 1 0 0 .964h2.487l.005.062c.15 1.996-.313 4.077-1.484 5.721h-8.604a8.106 8.106 0 0 1-1.266-2.85 9.422 9.422 0 0 1-.214-2.933h7.149a.482.482 0 1 0 0-.964H9.357c.125-.296.305-.567.534-.801a2.643 2.643 0 0 1 1.863-.784H18.1a2.618 2.618 0 0 1 2.397 1.585zm-1.811-13.004c0-.003-.575.298-.63.341-.946.754-.702 1.855-.558 2.895l1.002 7.241-.01-.001a3.01 3.01 0 0 0-.202-.016 3.893 3.893 0 0 0-.189-.006h-6.345a3.597 3.597 0 0 0-1.329.255c-.051.02-.372.132-.373.174l.001-.32c0-.772-.025-1.544-.075-2.297a3.592 3.592 0 0 0-1.2-2.439c-.036-.032-.289-.195-.289-.229v-.914c0-.594-.269-1.184-.726-1.573v-2.782c0-.035-.002-.069-.004-.102l-.002-.021a1.476 1.476 0 0 0-.912-1.241v-.151a1.88 1.88 0 0 1 1.878-1.878h8.084a1.88 1.88 0 0 1 1.878 1.878l.001 1.185z"/>
    </symbol>
    <symbol id="icon-twitter" viewBox="0 0 36 32">
      <path d="M32.273 9.188c1.406-1.055 2.672-2.32 3.656-3.797a13.835 13.835 0 0 1-4.219 1.125c1.547-.914 2.672-2.32 3.234-4.078a15.573 15.573 0 0 1-4.641 1.828 7.381 7.381 0 0 0-5.414-2.32 7.382 7.382 0 0 0-7.383 7.383c0 .563.07 1.125.211 1.688A21.424 21.424 0 0 1 2.459 3.283c-.633 1.055-.984 2.32-.984 3.727a7.265 7.265 0 0 0 3.305 6.117c-1.195-.07-2.391-.352-3.375-.914v.07c0 3.586 2.531 6.539 5.906 7.242-.563.141-1.266.281-1.898.281-.492 0-.914-.07-1.406-.141.914 2.953 3.656 5.063 6.891 5.133-2.531 1.969-5.695 3.164-9.141 3.164-.633 0-1.195-.07-1.758-.141 3.234 2.109 7.102 3.305 11.32 3.305 13.57 0 20.953-11.18 20.953-20.953v-.984z"/>
    </symbol>
    <symbol id="icon-user" viewBox="0 0 28 32">
      <path stroke-linecap="round" stroke-linejoin="round" stroke-width="1.362" d="M23.262 27.52v-2.56c0-1.358-.49-2.66-1.363-3.62s-2.056-1.5-3.29-1.5H9.304c-1.234 0-2.417.539-3.29 1.5s-1.363 2.262-1.363 3.62v2.56M13.957 14.72c2.569 0 4.653-2.292 4.653-5.12s-2.083-5.12-4.653-5.12c-2.569 0-4.652 2.292-4.652 5.12s2.083 5.12 4.652 5.12z"/>
    </symbol>
    <symbol id="icon-yogy" viewBox="0 0 22 32">
      <path d="M13.51 19.381a.486.486 0 0 0-.687-.039c-.293.262-1.028.526-2.009.526s-1.717-.264-2.009-.526a.486.486 0 1 0-.648.726c.542.484 1.536.773 2.658.773s2.116-.289 2.658-.773a.486.486 0 0 0 .039-.687zM9.663 15.093a.485.485 0 0 0-.687-.031c-.141.128-.531.266-1.057.266s-.916-.138-1.057-.266a.487.487 0 0 0-.656.718c.357.326.997.521 1.713.521s1.356-.194 1.713-.521a.486.486 0 0 0 .031-.687zM10.13 12.813c-.456-.296-1.282-.472-2.211-.472s-1.756.176-2.211.472a.486.486 0 1 0 .529.814c.242-.157.856-.315 1.682-.315s1.44.158 1.682.315a.485.485 0 1 0 .529-.815zM15.451 15.093a.485.485 0 0 0-.687-.031c-.141.128-.531.266-1.057.266s-.916-.138-1.057-.266a.487.487 0 0 0-.656.718c.357.326.998.521 1.713.521s1.355-.194 1.713-.521a.485.485 0 0 0 .031-.687zM15.92 12.813c-.456-.296-1.282-.472-2.212-.472s-1.756.176-2.211.472a.485.485 0 1 0 .53.815c.242-.157.856-.315 1.682-.315s1.44.158 1.682.315a.487.487 0 1 0 .529-.815z"/>
      <path d="M20.238 28.7c-.859-.73-2.03-1.132-3.297-1.132-1.668 0-2.822-.372-3.308-.565v-2.205a8.331 8.331 0 0 0 5.168-5.565 3.185 3.185 0 0 0 2.782-3.153 3.198 3.198 0 0 0-2.476-3.1v-1.077c.562-1.969.527-3.904.396-5.186a15.764 15.764 0 0 0-.268-1.711 6.826 6.826 0 0 0-.161-.647.494.494 0 0 0-.03-.084c-.539-1.142-1.497-2.115-2.723-2.844a.479.479 0 0 0-.079-.046C14.735.511 12.834.001 10.813.001c-1.592 0-3.149.315-4.502.911a.486.486 0 1 0 .392.89c1.231-.542 2.652-.828 4.11-.828 1.613 0 3.134.347 4.396.954-.591.509-1.295.999-2.136 1.487a.487.487 0 0 0 .489.841c1.019-.591 1.854-1.19 2.544-1.823.844.553 1.516 1.241 1.943 2.029a3.62 3.62 0 0 1-.088.133c-1.065 1.551-3.325 3.037-6.594 4.337l-.059.023-.214.084c-3.252 1.256-6.569 1.994-7.737 2.234a12.439 12.439 0 0 1-.34-3.089c.404-.081.807-.197 1.2-.311.308-.089.627-.181.934-.253l.015-.004c1.999-.529 3.967-1.244 6.38-2.319.246-.109.356-.397.246-.642s-.397-.356-.642-.246C8.789 5.46 6.869 6.159 4.924 6.674c-.331.077-.66.172-.978.264-.304.088-.598.173-.886.24.106-1.359.364-2.335.416-2.522.337-.698.869-1.333 1.584-1.888a.486.486 0 1 0-.597-.769c-.848.659-1.482 1.424-1.884 2.275a.546.546 0 0 0-.026.067c-.046.153-1.117 3.779-.037 7.562v1.077A3.196 3.196 0 0 0 .04 16.079a3.187 3.187 0 0 0 2.783 3.153 8.329 8.329 0 0 0 5.168 5.565v2.205c-.487.194-1.64.566-3.308.566-1.268 0-2.438.402-3.297 1.132-.867.736-1.345 1.736-1.345 2.813 0 .269.218.486.486.486h20.569a.486.486 0 0 0 .486-.486c0-1.077-.478-2.076-1.346-2.814zm-1.211-10.551c.053-.381.08-.766.08-1.151v-3.009a2.22 2.22 0 0 1 1.504 2.091 2.211 2.211 0 0 1-1.59 2.118c.003-.016.004-.033.006-.049zM1.015 16.081c0-.959.629-1.794 1.504-2.091v3.009c0 .385.027.769.08 1.151l.006.049a2.212 2.212 0 0 1-1.59-2.118zM18.23 5.824l.034-.038.09-.105.017-.02c.221 1.229.446 3.391-.102 5.611a53.592 53.592 0 0 1-6.065-1.63C14.983 8.492 17 7.214 18.23 5.825zM3.609 18.306l-.003-.016a7.264 7.264 0 0 1-.114-1.291v-4.762a47.6 47.6 0 0 0 6.119-1.632l.027-.009h2.35a54.208 54.208 0 0 0 6.146 1.641v4.762c0 .432-.038.866-.114 1.292l-.003.015a7.344 7.344 0 0 1-5.193 5.734l-.013.004a7.38 7.38 0 0 1-3.999 0l-.009-.003a7.349 7.349 0 0 1-5.196-5.734zM1.061 31.027c.116-.601.446-1.151.956-1.586.683-.581 1.631-.9 2.668-.9 2.503 0 3.961-.759 4.022-.792a.485.485 0 0 0 .258-.429v-2.234c.001.186 1.749.207 1.848.207.621 0 1.241-.069 1.848-.207v2.234c0 .18.099.345.258.429.061.032 1.519.792 4.022.792 1.037 0 1.984.319 2.668.9.511.434.841.985.956 1.586l-19.503-.001z"/>
    </symbol>
  </defs>
</svg>
